PathFileType	4	(X/Y/Z)	Patient4_TMGait_0pt2_02_right_05.trc.trc
DataRate	CameraRate	NumFrames	NumMarkers	Units	OrigDataRate	OrigDataStartFrame	OrigNumFrames
42.944785276074	42.944785276074	5	33	mm	42.944785276074	89	       141
Frame#	Time	R.Midfoot.Superior			Sacral			L.Shoulder			Chest			R.Shoulder			Neck			R.ASIS			L.ASIS			R.Thigh.Superior			R.Thigh.Lateral			R.Thigh.Inferior			R.Patella			L.Thigh.Superior			L.Thigh.Lateral			L.Thigh.Inferior			L.Patella			L.Shank.Superior			L.Shank.Lateral			L.Shank.Inferior			R.Shank.Superior			R.Shank.Lateral			R.Shank.Inferior			R.Heel			R.Midfoot.Lateral			R.Toe			L.Heel			L.Midfoot.Lateral			L.Midfoot.Superior			L.Toe			L.Elbow			L.Wrist			R.Elbow			R.Wrist			
		X1	Y1	Z1	X2	Y2	Z2	X3	Y3	Z3	X4	Y4	Z4	X5	Y5	Z5	X6	Y6	Z6	X7	Y7	Z7	X8	Y8	Z8	X9	Y9	Z9	X10	Y10	Z10	X11	Y11	Z11	X12	Y12	Z12	X13	Y13	Z13	X14	Y14	Z14	X15	Y15	Z15	X16	Y16	Z16	X17	Y17	Z17	X18	Y18	Z18	X19	Y19	Z19	X20	Y20	Z20	X21	Y21	Z21	X22	Y22	Z22	X23	Y23	Z23	X24	Y24	Z24	X25	Y25	Z25	X26	Y26	Z26	X27	Y27	Z27	X28	Y28	Z28	X29	Y29	Z29	X30	Y30	Z30	X31	Y31	Z31	X32	Y32	Z32	X33	Y33	Z33	

89	12.009142857143	805.438479465523	100.424751767563	581.886417507249	746.964660153742	1013.930290055395	503.295931082370	890.409249981253	1431.061855733498	283.283833276070	1026.460526812049	1360.813626663047	417.445241329879	988.724164200721	1441.947135374667	601.562409405115	905.275562884129	1495.802659723672	438.904216324584	988.215418117282	935.814435624968	580.159634293240	932.146112230529	962.291954282000	312.364882249759	987.545411601101	723.833266888178	549.174648889702	898.280904847793	625.029736107270	622.421975072570	951.782986379695	561.964438542569	534.285169279567	936.334371287385	468.706785801694	544.120923428191	999.001807296750	763.266279496000	346.179780765558	924.276718555187	635.802753745972	286.090230770660	1018.961300321230	569.166530206904	347.264995388825	1025.727832938474	500.057276937975	353.871809440642	1005.476885864266	427.018717151150	344.117439865451	925.269963659219	306.813043520626	290.688269920542	987.506625913521	198.432301664155	358.628927297271	883.244290131915	391.316364387699	557.472046080557	794.767772501550	311.076400652364	632.400657704882	800.478298353923	207.803222126302	569.335223163477	626.218129942032	69.459982409945	560.623080460616	714.292278169528	50.762474880561	627.335395687598	919.381741609024	37.511946784795	600.758005469216	869.448840819166	37.858159363378	392.766439031097	946.624682182972	35.602368318597	314.773337376493	1027.142532619951	98.666044296590	344.221009416911	1156.765464136720	51.436358880991	321.144169539580	758.562069245049	1100.986438358932	193.599243091317	749.458000521152	840.745344857465	225.579438075130	1209.395461734934	1188.149183975844	694.039796505136	1437.786019616742	1259.442262209602	594.702571005285	
90	12.032428571429	802.988575872002	100.994220758399	582.227713433273	747.713568429736	1014.407575038151	495.523576082531	892.822454892645	1432.090751074580	278.135538470283	1026.987660278149	1362.400018545671	414.387290692194	986.136210944370	1443.232064737239	598.043124077165	905.281762892791	1496.958291339705	434.049061441773	988.122668511300	937.091426409586	575.774378520341	935.570098839416	963.169955586607	307.288603562049	988.915282618900	725.040965248717	545.940026161408	899.646800974343	626.186622775480	619.008454943681	954.848096350191	562.648798464159	532.076615386104	939.843855511829	468.392791078111	543.054517953445	1000.825310384829	762.779361063785	342.006923752523	925.198557711365	635.585585708473	282.307890280404	1018.746189983024	568.435997307906	344.482473457056	1024.877833116314	499.235343610307	351.696199614362	1004.093570181123	426.300140934919	342.264449904816	923.297336198231	306.415032241718	289.141828530594	984.038881567914	197.972720487655	358.140776468427	885.117780115079	391.922187334999	556.374458292577	794.548919127331	313.858261947729	631.102662607042	799.533487788689	209.699455921753	569.255475971270	623.026828239090	74.117608065327	560.707097718870	710.635526412793	53.108193077333	627.393624608153	915.115276909891	37.348065334915	600.755785069337	864.755627546927	37.848278979037	392.779841291911	941.910354535474	35.595553630150	314.774346727107	1022.571381409097	98.396111936929	344.349305453979	1152.147852486377	50.959822640828	321.182902483955	767.752785419531	1099.276080050979	186.033734407236	765.849327883689	838.491732806294	213.826711044043	1199.481396494852	1181.338805171006	693.346277952762	1433.445195213144	1241.176386508210	599.318110288012	
91	12.055714285714	801.029309675282	101.639982408221	582.649705289173	748.440666404387	1014.633634844763	487.574641291786	895.251495419446	1433.012544882946	273.044468464817	1027.366827761587	1363.881011161237	411.465004700069	983.218916290354	1444.307133761031	594.612711437045	905.172764650694	1497.968340131178	429.232992319207	987.915203627948	938.278998701720	571.352338685582	939.095423538434	963.962744583961	302.223427179056	991.010902015612	726.333722270223	542.688893188977	902.111604726615	627.155639749642	615.516073950247	959.350217222827	563.340896733480	529.849781381173	945.011202347837	467.907926828231	542.112868802547	1002.886080070028	762.219728736072	337.919905439311	926.481438118649	635.259754801279	278.587478017544	1018.850174667929	567.652174910708	341.848632021218	1024.386621876827	498.337056704170	349.642334954768	1002.988985517424	425.495515983896	340.526398508141	921.581137731187	305.986370350379	287.638137050685	980.689057264880	197.452481292045	357.685277546709	888.431592388105	392.410685564217	555.351942652242	795.515150371681	316.895860334870	629.748270028587	799.520457068403	211.838932575943	569.269383123389	620.430456478811	79.791921846035	560.827516842062	707.309180859855	56.032810588706	627.482777514414	910.814970358093	37.180006389021	600.749191663933	860.074419349278	37.857265986608	392.792323823648	937.216740870775	35.601761505988	314.789108823421	1018.054029832507	98.104012201141	344.513137127801	1147.575967960591	50.364534859732	321.246343766773	778.181635586934	1097.181379759561	178.613857995602	783.719445722822	836.091596669562	202.420571118255	1188.006064236388	1173.579705848893	692.772389107733	1427.324181002264	1219.350123664954	604.818051914321	
92	12.079000000000	799.624230528963	102.443323416574	583.135166102150	749.114639727548	1014.519738293712	479.477171104435	897.688124890902	1433.776348703447	268.064388267911	1027.588225914931	1365.154926387866	408.699912325722	979.986959672968	1445.028600551681	591.302772397627	904.958070151990	1498.742008329539	424.521716634095	987.571570689250	939.286303362395	566.873215881435	942.659030884694	964.606209675990	297.167065002334	993.906692478932	727.689919607698	539.373923640290	905.828668046675	627.894652994379	611.930041782490	965.428607013593	564.040726489296	527.562893364555	951.985395380348	467.274179460686	541.231018228522	1005.213628944920	761.594835868032	333.919603575506	928.226913883972	634.787705720735	274.940471660836	1019.426218512852	566.821729379095	339.359161013954	1024.444637865519	497.345265480387	347.700382255823	1002.313423619320	424.564887518705	338.903090812265	920.223006913850	305.519832916182	286.179308261600	977.506841533961	196.851063182572	357.263533227102	893.358204569385	392.778050515928	554.355559404964	797.880426302169	320.224938330113	628.314230436958	800.586313942603	214.287702943934	569.343629543079	618.601325730491	86.736288245320	560.977221688532	704.401865002501	59.746778878779	627.590123182872	906.440115841374	36.969500746135	600.740576735461	855.411668182601	37.886546000263	392.799518357337	932.550414393767	35.620045291988	314.812315914593	1013.589013870276	97.805744513084	344.699516288006	1143.052485881915	49.671574431829	321.324536094215	789.963697181134	1094.753004956696	171.286371298395	803.135594315795	833.623743540698	191.481772526046	1174.971181294163	1164.915320922008	692.211027660484	1418.938423562063	1193.880027220309	611.102806279038	
93	12.102285714286	798.817073798672	103.514111696220	583.651974485526	749.702124447550	1013.979225567086	471.270549593538	900.128770297706	1434.323881626355	263.246536939099	1027.649009385502	1366.113811609316	406.113410443351	976.461780415398	1445.252494102124	588.142861650136	904.651346797550	1499.183546210732	419.982323786274	987.082938442863	940.021327911376	562.325520933375	946.194020735287	965.024227507573	292.121231233369	997.641453411054	729.090947527175	535.944261324015	910.902039807235	628.382195708263	608.239383139476	973.145601012648	564.763198704787	525.168776962185	960.834188306881	466.537336184062	540.326499883799	1007.822377312313	760.899324937760	330.001916770569	930.513166494319	634.121172449565	271.380419395846	1020.608020402435	565.939999683592	337.008351267869	1025.219262402404	496.235148934834	345.860470654117	1002.198797292808	423.461763595812	337.394104465320	919.305638887253	305.001339319497	284.772726977522	974.531697501564	196.146641316421	356.878092838256	900.001199133590	393.040325866343	553.321472107818	801.808440528478	323.884955995598	626.777179702610	802.836216374643	217.121209355958	569.429267816741	617.705540523202	95.186985698155	561.128957449340	701.999217221591	64.471853594158	627.687205056998	901.949859453356	36.671033319885	600.731722808351	850.770847224466	37.936282658966	392.797870583724	927.914080366227	35.648294269733	314.838687432378	1009.171186335786	97.513926394523	344.896405500911	1138.575026424402	48.903462561100	321.408053873067	803.143415987368	1092.074584308116	164.000819328190	824.135396427032	831.201516480524	181.117954748168	1160.407137161247	1155.418352733773	691.559281838221	1407.755854739058	1164.861427928080	618.054841921502	
